<svg class="img-fluid" id="outputsvg" xmlns="http://www.w3.org/2000/svg" style="transform: none; transform-origin: 50% 50%; cursor: move; max-height: none;" width="794" height="268" viewBox="0 0 7940 2680"><g id="l7H1xCOcYhCDbbAEo2dWCNj" fill="rgb(235,124,26)" style="transform: none;"><g style="transform: none;"><path id="pIKJDFvR5" d="M 3982 2405 c -109 -24 -172 -80 -172 -153 0 -82 64 -150 203 -215 48 -23 87 -47 87 -53 0 -6 -18 -23 -40 -38 -25 -16 -40 -34 -40 -47 0 -20 90 -119 110 -119 21 0 9 -37 -21 -66 -93 -87 -91 -251 5 -377 41 -53 134 -111 211 -132 65 -18 68 -18 183 3 128 24 222 28 254 11 15 -8 12 0 -13 31 -32 40 -36 42 -76 36 -24 -3 -55 -9 -70 -12 -26 -7 -26 -7 -17 32 4 21 8 73 8 114 1 63 -4 85 -30 140 -37 78 -99 141 -174 178 -45 22 -69 27 -131 27 -84 0 -104 10 -114 56 -11 51 13 73 132 118 148 56 188 78 228 122 46 51 53 96 25 154 -38 79 -138 146 -264 179 -87 23 -211 28 -284 11 z  m 360 -64 c 70 -27 108 -68 108 -118 0 -85 -63 -141 -220 -194 l -95 -32 -87 59 c -104 69 -136 115 -124 179 10 50 61 100 124 120 68 22 219 14 294 -14 z  m 24 -632 c 69 -42 114 -165 114 -310 0 -140 -40 -186 -141 -159 -31 8 -58 26 -91 60 -61 63 -88 146 -88 267 0 89 8 117 44 145 31 26 119 24 162 -3 z "></path><path id="p1BRZT1H4z" d="M 5113 2004 c -23 -23 -25 -31 -20 -82 3 -32 19 -97 36 -147 17 -49 31 -98 31 -107 0 -34 -25 -17 -62 40 -54 84 -212 248 -272 283 -87 49 -138 35 -173 -49 -20 -48 -19 -155 2 -228 58 -201 214 -381 412 -475 100 -48 152 -56 212 -35 24 9 60 16 81 16 l 37 0 -44 148 c -111 371 -124 421 -130 484 -5 56 -3 69 10 74 22 8 55 -11 115 -69 73 -72 65 -42 -10 39 -66 70 -111 103 -166 122 -30 10 -36 9 -59 -14 z  m -245 -88 c 63 -33 230 -231 291 -346 29 -55 101 -250 101 -275 0 -20 -59 -39 -116 -39 -32 1 -70 10 -98 23 -129 63 -268 322 -283 527 -7 97 4 124 48 124 16 0 42 -6 57 -14 z "></path><path id="pfiHTDT3S" d="M 2981 1994 c -31 -39 -27 -76 29 -283 85 -318 190 -761 190 -801 0 -51 -18 -64 -81 -58 -41 4 -48 3 -37 -8 15 -14 266 -90 273 -82 5 5 -174 731 -241 979 -37 139 -41 177 -20 185 21 8 70 -20 121 -70 57 -54 58 -43 1 26 -63 78 -148 138 -195 138 -11 0 -29 -12 -40 -26 z "></path><path id="p7drnIOWh" d="M 3475 2006 c -41 -18 -100 -85 -116 -132 -22 -62 -18 -197 8 -279 64 -201 243 -379 404 -401 65 -9 114 16 142 72 30 63 14 111 -66 189 -67 65 -146 112 -287 172 l -90 38 0 65 c 0 85 15 137 50 172 58 57 174 31 294 -67 72 -59 59 -31 -25 53 -108 108 -231 154 -314 118 z  m 132 -441 c 106 -52 175 -119 193 -185 22 -81 -9 -130 -83 -130 -69 0 -123 44 -172 141 -23 44 -65 179 -65 206 0 23 36 14 127 -32 z "></path><path id="p11DcbUvh2" d="M 5986 1998 c -9 -12 -16 -37 -16 -55 0 -18 32 -142 70 -275 76 -263 87 -340 52 -371 -10 -10 -26 -17 -36 -17 -52 0 -161 89 -246 202 -94 124 -122 187 -195 431 l -26 87 -54 0 c -30 0 -55 -1 -55 -3 0 -2 29 -104 64 -228 106 -374 116 -441 66 -447 -17 -2 -42 9 -73 33 -26 20 -47 32 -47 26 0 -18 130 -128 189 -160 58 -31 60 -31 70 -12 19 34 12 135 -14 225 -29 100 -30 106 -12 106 8 0 35 -31 61 -70 82 -119 168 -205 248 -245 39 -19 79 -35 90 -35 35 0 75 29 93 66 27 58 15 149 -50 363 -31 101 -58 211 -62 243 l -6 58 31 0 c 23 0 45 -13 88 -52 74 -68 54 -26 -26 53 -91 92 -173 122 -204 77 z "></path><path id="pUWRfVN4e" d="M 6463 2004 c -50 -25 -100 -87 -117 -145 -60 -201 58 -459 272 -597 120 -77 199 -88 262 -36 37 32 38 53 4 88 -33 33 -50 33 -58 1 -8 -33 -47 -48 -112 -43 -65 6 -105 34 -154 109 -77 119 -119 328 -90 447 29 124 145 137 301 33 33 -22 59 -36 59 -31 0 18 -137 132 -193 160 -68 34 -124 38 -174 14 z "></path><path id="pqQtTCOzA" d="M 7045 2005 c -190 -99 -159 -446 60 -671 138 -142 310 -185 375 -94 32 45 35 83 10 134 -40 83 -172 178 -351 251 l -84 34 -3 73 c -4 85 8 135 42 171 22 23 33 27 84 27 73 0 140 -32 219 -104 53 -47 55 -49 37 -17 -27 48 -143 152 -200 181 -61 30 -147 37 -189 15 z  m 133 -437 c 107 -53 185 -125 202 -188 22 -81 -7 -130 -77 -130 -100 0 -169 80 -222 256 -36 122 -32 125 97 62 z "></path><path id="p5Yx5Z3rH" d="M 2042 1985 c 2 -16 14 -22 54 -28 29 -5 59 -16 67 -25 13 -14 129 -634 178 -944 14 -93 10 -101 -61 -118 -31 -7 -50 -17 -50 -26 0 -12 58 -14 358 -14 l 358 0 -18 102 c -10 55 -20 103 -22 106 -12 11 -25 -13 -31 -61 -13 -93 -1 -88 -207 -85 l -181 3 -38 225 c -21 124 -38 228 -39 233 0 4 78 6 172 5 l 173 -3 21 -60 c 12 -33 28 -61 36 -63 12 -2 9 25 -14 155 -15 87 -30 164 -33 171 -9 24 -25 11 -25 -20 0 -18 -3 -50 -6 -71 l -7 -37 -165 2 -166 3 -37 220 c -21 121 -38 235 -38 253 l -1 32 213 -2 212 -3 50 -77 c 28 -42 55 -77 61 -77 13 -1 -31 196 -49 217 -9 12 -73 14 -390 11 -371 -4 -378 -4 -375 -24 z "></path></g></g><g id="l6nYsZhqHVTX4YU7DNb8F8d" fill="rgb(64,170,168)" style="transform: none;"><g style="transform: none;"><path id="pEX8GhHlX" d="M 1708 2002 c -186 -2 -198 -4 -198 -21 0 -15 10 -20 48 -26 26 -4 53 -12 60 -17 9 -8 12 -125 12 -523 0 -569 5 -526 -71 -548 -23 -7 -44 -18 -47 -25 -3 -9 43 -12 197 -12 169 0 201 2 201 15 0 9 -14 16 -37 20 -74 12 -68 -33 -71 543 -2 572 -5 552 58 552 16 0 35 3 44 6 16 6 22 30 9 36 -5 2 -97 2 -205 0 z "></path><path id="pqFFTblcG" d="M 280 1985 c 0 -8 16 -19 38 -25 22 -5 46 -18 54 -27 9 -10 69 -171 134 -358 65 -187 150 -432 189 -545 l 71 -205 55 -3 55 -3 16 48 c 91 271 363 1043 374 1060 8 12 32 27 54 33 24 6 40 17 40 25 0 13 -29 15 -186 15 -143 0 -185 -3 -182 -12 3 -7 22 -18 44 -24 54 -15 54 -37 2 -194 l -42 -130 -227 0 -226 0 -42 140 c -47 154 -47 163 13 178 17 5 32 16 34 25 3 15 -10 17 -132 17 -113 0 -136 -3 -136 -15 z  m 680 -433 c 0 -35 -179 -547 -192 -550 -14 -3 -202 543 -192 559 3 5 90 9 195 9 177 0 189 -1 189 -18 z "></path></g></g></svg>