<svg xmlns="http://www.w3.org/2000/svg" xmlns:xlink="http://www.w3.org/1999/xlink" width="512" zoomAndPan="magnify" viewBox="0 0 384 383.999986" height="512" preserveAspectRatio="xMidYMid meet" version="1.0"><defs><clipPath id="8282a1f3e7"><path d="M 24.695312 25.347656 L 359.195312 25.347656 L 359.195312 358.347656 L 24.695312 358.347656 Z M 24.695312 25.347656 " clip-rule="nonzero"/></clipPath></defs><g clip-path="url(#8282a1f3e7)"><path fill="#0a0a0a" d="M 100.25 25.460938 L 283.742188 25.460938 C 325.300781 25.460938 359.300781 59.464844 359.300781 101.019531 L 359.300781 282.96875 C 359.300781 324.523438 325.300781 358.527344 283.742188 358.527344 L 100.25 358.527344 C 58.695312 358.527344 24.695312 324.523438 24.695312 282.96875 L 24.695312 101.019531 C 24.695312 59.464844 58.695312 25.460938 100.25 25.460938 Z M 100.25 25.460938 " fill-opacity="1" fill-rule="evenodd"/></g><path fill="#4d6bfe" d="M 312.832031 116.410156 C 310.21875 115.128906 309.09375 117.574219 307.5625 118.8125 C 307.039062 119.210938 306.597656 119.730469 306.15625 120.210938 C 302.335938 124.292969 297.867188 126.976562 292.035156 126.65625 C 283.507812 126.175781 276.226562 128.855469 269.789062 135.378906 C 268.421875 127.335938 263.875 122.53125 256.957031 119.453125 C 253.335938 117.851562 249.675781 116.25 247.140625 112.769531 C 245.371094 110.289062 244.890625 107.527344 244.003906 104.804688 C 243.441406 103.164062 242.875 101.484375 240.984375 101.203125 C 238.933594 100.882812 238.128906 102.601562 237.324219 104.042969 C 234.105469 109.925781 232.859375 116.410156 232.980469 122.972656 C 233.265625 137.738281 239.5 149.503906 251.890625 157.867188 C 253.296875 158.828125 253.660156 159.789062 253.21875 161.191406 C 252.371094 164.070312 251.367188 166.871094 250.480469 169.753906 C 249.917969 171.59375 249.070312 171.996094 247.101562 171.195312 C 240.304688 168.355469 234.429688 164.152344 229.238281 159.070312 C 220.429688 150.546875 212.464844 141.140625 202.527344 133.777344 C 200.226562 132.074219 197.867188 130.460938 195.449219 128.933594 C 185.308594 119.089844 196.777344 111.007812 199.429688 110.046875 C 202.207031 109.046875 200.394531 105.605469 191.421875 105.644531 C 182.453125 105.683594 174.246094 108.6875 163.789062 112.6875 C 162.257812 113.289062 160.648438 113.730469 159 114.089844 C 149.507812 112.285156 139.648438 111.886719 129.351562 113.046875 C 109.960938 115.207031 94.472656 124.371094 83.089844 140.019531 C 69.414062 158.832031 66.191406 180.199219 70.136719 202.488281 C 74.277344 225.980469 86.265625 245.429688 104.691406 260.636719 C 123.800781 276.402344 145.804688 284.125 170.90625 282.644531 C 186.152344 281.765625 203.128906 279.726562 222.277344 263.515625 C 227.105469 265.917969 232.175781 266.878906 240.582031 267.597656 C 247.058594 268.199219 253.296875 267.277344 258.121094 266.277344 C 265.6875 264.679688 265.164062 257.675781 262.425781 256.394531 C 240.261719 246.070312 245.128906 250.273438 240.703125 246.871094 C 251.96875 233.546875 268.945312 219.699219 275.582031 174.839844 C 276.105469 171.277344 275.660156 169.035156 275.582031 166.15625 C 275.542969 164.394531 275.941406 163.714844 277.957031 163.515625 C 283.507812 162.871094 288.898438 161.355469 293.84375 158.632812 C 308.207031 150.789062 314 137.902344 315.367188 122.457031 C 315.566406 120.09375 315.328125 117.652344 312.832031 116.414062 Z M 187.683594 255.433594 C 166.199219 238.546875 155.78125 232.980469 151.476562 233.222656 C 147.457031 233.464844 148.179688 238.066406 149.0625 241.066406 C 149.988281 244.027344 151.195312 246.066406 152.886719 248.667969 C 154.050781 250.390625 154.859375 252.949219 151.71875 254.875 C 144.800781 259.152344 132.773438 253.433594 132.207031 253.152344 C 118.210938 244.90625 106.503906 234.023438 98.253906 219.136719 C 90.289062 204.808594 85.664062 189.445312 84.898438 173.035156 C 84.699219 169.074219 85.867188 167.671875 89.808594 166.953125 C 94.996094 165.992188 100.347656 165.792969 105.535156 166.550781 C 127.460938 169.753906 146.125 179.558594 161.773438 195.085938 C 170.707031 203.925781 177.464844 214.492188 184.425781 224.816406 C 191.828125 235.78125 199.792969 246.226562 209.929688 254.792969 C 213.511719 257.792969 216.367188 260.074219 219.101562 261.753906 C 210.855469 262.675781 197.09375 262.875 187.683594 255.433594 Z M 198.074219 188.433594 C 198.414062 187.054688 199.65625 186.042969 201.160156 186.042969 C 201.535156 186.042969 201.894531 186.109375 202.246094 186.242188 C 202.6875 186.402344 203.089844 186.644531 203.414062 187 C 203.976562 187.5625 204.296875 188.363281 204.296875 189.203125 C 204.296875 190.964844 202.890625 192.363281 201.121094 192.363281 C 200.746094 192.367188 200.382812 192.304688 200.03125 192.179688 C 199.683594 192.050781 199.363281 191.867188 199.078125 191.625 C 198.796875 191.382812 198.5625 191.097656 198.378906 190.769531 C 198.199219 190.445312 198.078125 190.097656 198.023438 189.726562 C 197.953125 189.292969 197.96875 188.859375 198.074219 188.433594 Z M 228.925781 206.023438 C 227.222656 206.671875 225.527344 207.183594 223.890625 207.25 C 220.832031 207.410156 217.492188 206.171875 215.683594 204.648438 C 212.867188 202.289062 210.855469 200.96875 210.011719 196.847656 C 209.648438 195.085938 209.851562 192.363281 210.171875 190.804688 C 210.894531 187.441406 210.089844 185.28125 207.71875 183.320312 C 205.789062 181.71875 203.332031 181.28125 200.636719 181.28125 C 199.632812 181.28125 198.707031 180.839844 198.023438 180.480469 C 196.898438 179.921875 195.972656 178.519531 196.855469 176.796875 C 197.140625 176.238281 198.507812 174.878906 198.828125 174.636719 C 202.488281 172.554688 206.714844 173.238281 210.613281 174.796875 C 214.234375 176.277344 216.972656 179 220.914062 182.839844 C 224.9375 187.480469 225.660156 188.761719 227.953125 192.246094 C 229.765625 194.964844 231.414062 197.765625 232.539062 200.96875 C 233.113281 202.640625 232.585938 204.066406 231.011719 205.070312 C 230.371094 205.476562 229.632812 205.753906 228.925781 206.023438 Z M 228.925781 206.023438 " fill-opacity="1" fill-rule="nonzero"/></svg>