<svg xmlns="http://www.w3.org/2000/svg" xmlns:xlink="http://www.w3.org/1999/xlink" width="512" zoomAndPan="magnify" viewBox="0 0 384 383.999986" height="512" preserveAspectRatio="xMidYMid meet" version="1.0"><path fill="#ffffff" d="M 339.464844 50.816406 L 339.792969 50.816406 C 339.640625 51.28125 339.511719 51.597656 339.164062 51.941406 C 338.746094 52.363281 338.433594 52.804688 338.097656 53.289062 C 337.25 54.496094 336.359375 55.667969 335.457031 56.835938 C 334.820312 57.667969 334.203125 58.511719 333.605469 59.375 C 333.242188 59.894531 332.871094 60.410156 332.5 60.925781 C 331.9375 61.707031 331.394531 62.5 330.882812 63.316406 L 330.691406 63.5625 L 330.359375 63.5625 L 330.226562 63.929688 C 330.035156 64.378906 329.820312 64.71875 329.53125 65.109375 L 329.242188 65.503906 L 328.945312 65.910156 C 328.746094 66.179688 328.550781 66.445312 328.351562 66.714844 L 328.089844 67.070312 C 327.871094 67.363281 327.871094 67.363281 327.710938 67.699219 L 327.382812 67.699219 L 327.328125 67.988281 C 327.199219 68.414062 327.019531 68.6875 326.761719 69.046875 C 326.667969 69.175781 326.574219 69.308594 326.476562 69.445312 L 326.171875 69.871094 C 325.957031 70.171875 325.746094 70.472656 325.53125 70.773438 L 325.207031 71.230469 C 324.757812 71.875 324.320312 72.527344 323.886719 73.183594 L 323.640625 73.554688 L 323.152344 74.289062 C 322.839844 74.757812 322.53125 75.226562 322.21875 75.691406 C 322.058594 75.929688 321.902344 76.167969 321.742188 76.40625 C 321.289062 77.085938 320.835938 77.765625 320.378906 78.445312 C 320.117188 78.835938 319.855469 79.230469 319.589844 79.625 C 319.464844 79.816406 319.335938 80.007812 319.207031 80.195312 C 317.925781 82.101562 316.730469 84.050781 315.566406 86.03125 C 315.289062 86.5 315.011719 86.972656 314.734375 87.445312 C 314.492188 87.855469 314.253906 88.261719 314.011719 88.667969 C 313.613281 89.347656 313.214844 90.027344 312.816406 90.707031 L 312.632812 91.019531 C 311.96875 92.160156 311.335938 93.3125 310.753906 94.5 C 310.488281 95.035156 310.199219 95.550781 309.910156 96.074219 C 304.351562 106.335938 301.21875 118.15625 300.402344 129.765625 L 300.375 130.140625 C 300.054688 134.328125 300.191406 138.53125 300.464844 142.714844 L 300.496094 143.207031 C 300.621094 145.082031 300.796875 146.9375 301.066406 148.796875 C 301.113281 149.160156 301.15625 149.519531 301.203125 149.882812 C 301.878906 155.246094 302.722656 160.621094 303.953125 165.886719 C 304.230469 167.070312 304.46875 168.261719 304.707031 169.457031 L 304.839844 170.121094 C 304.960938 170.738281 305.082031 171.351562 305.203125 171.96875 L 305.285156 172.386719 C 305.835938 175.179688 306.316406 177.996094 306.59375 180.828125 C 306.652344 181.441406 306.652344 181.441406 306.773438 182.042969 C 306.960938 182.824219 306.96875 183.644531 307.023438 184.445312 L 307.066406 185.066406 C 307.410156 190.195312 307.433594 195.324219 307.214844 200.460938 C 307.199219 200.878906 307.183594 201.292969 307.167969 201.710938 C 306.820312 211.1875 304.765625 220.765625 301.726562 229.730469 L 301.59375 230.136719 C 300.613281 233.070312 299.511719 235.992188 298.175781 238.789062 C 297.90625 239.363281 297.648438 239.941406 297.390625 240.523438 C 296.40625 242.734375 295.351562 244.886719 294.148438 246.988281 C 293.78125 247.636719 293.433594 248.292969 293.109375 248.960938 C 292.195312 250.820312 291.011719 252.527344 289.855469 254.246094 C 289.652344 254.550781 289.449219 254.855469 289.246094 255.164062 C 288.160156 256.816406 287.011719 258.421875 285.839844 260.019531 L 285.628906 260.304688 C 284.785156 261.453125 283.90625 262.570312 283.007812 263.679688 C 282.558594 264.21875 282.558594 264.21875 282.199219 264.820312 L 281.867188 264.820312 L 281.730469 265.117188 C 281.539062 265.472656 281.339844 265.738281 281.074219 266.042969 C 280.988281 266.140625 280.898438 266.242188 280.808594 266.347656 C 280.71875 266.449219 280.625 266.554688 280.53125 266.660156 C 280.351562 266.867188 280.167969 267.074219 279.988281 267.28125 L 279.746094 267.558594 C 279.535156 267.800781 279.535156 267.800781 279.382812 268.128906 L 279.054688 268.128906 L 278.917969 268.421875 C 278.71875 268.796875 278.5 269.089844 278.226562 269.414062 L 277.96875 269.71875 L 277.730469 269.949219 L 277.398438 269.949219 L 277.398438 270.28125 L 277.066406 270.28125 L 276.933594 270.578125 C 276.734375 270.949219 276.53125 271.191406 276.234375 271.484375 L 275.925781 271.796875 C 275.816406 271.90625 275.703125 272.011719 275.589844 272.125 L 275.246094 272.46875 C 275.003906 272.710938 274.761719 272.953125 274.519531 273.191406 C 274.152344 273.554688 273.789062 273.921875 273.421875 274.289062 L 272.714844 274.992188 L 272.386719 275.316406 C 271.65625 276.042969 270.898438 276.726562 270.117188 277.398438 L 269.824219 277.652344 C 269.597656 277.851562 269.359375 278.039062 269.121094 278.226562 L 268.792969 278.226562 L 268.792969 278.554688 C 268.535156 278.789062 268.265625 279.011719 267.996094 279.230469 L 267.492188 279.632812 L 267.230469 279.839844 C 266.828125 280.160156 266.433594 280.484375 266.039062 280.8125 C 265.464844 281.28125 264.890625 281.746094 264.3125 282.207031 L 263.953125 282.492188 L 263.660156 282.695312 L 263.328125 282.695312 L 263.328125 283.023438 C 263.042969 283.273438 263.042969 283.273438 262.617188 283.574219 L 262.113281 283.929688 C 261.914062 284.070312 261.710938 284.210938 261.507812 284.347656 L 261.15625 284.59375 C 260.226562 285.234375 259.296875 285.871094 258.363281 286.5 L 258.035156 286.726562 C 254.945312 288.828125 251.761719 290.828125 248.402344 292.476562 C 247.820312 292.761719 247.246094 293.070312 246.675781 293.375 C 244.816406 294.371094 242.914062 295.253906 240.984375 296.101562 L 240.527344 296.300781 C 240.082031 296.496094 239.632812 296.691406 239.1875 296.886719 L 238.792969 297.058594 C 236.570312 298.007812 234.28125 298.800781 231.988281 299.566406 L 231.59375 299.695312 C 227.667969 301 223.671875 301.976562 219.636719 302.886719 L 219.183594 302.992188 C 216.816406 303.53125 214.425781 303.886719 212.023438 304.210938 L 211.390625 304.296875 C 205.753906 305.046875 200.003906 305.570312 194.3125 305.367188 L 193.980469 305.355469 C 190.152344 305.21875 186.359375 304.882812 182.5625 304.375 L 182.167969 304.324219 C 171.46875 302.894531 161.253906 300.070312 151.378906 295.699219 C 150.523438 295.324219 149.660156 294.964844 148.796875 294.609375 L 148.796875 294.28125 C 148.660156 294.265625 148.519531 294.25 148.375 294.230469 C 147.734375 294.101562 147.210938 293.855469 146.636719 293.554688 L 146.292969 293.378906 C 146.042969 293.25 145.796875 293.121094 145.546875 292.992188 C 145.148438 292.785156 144.75 292.582031 144.351562 292.378906 C 141.382812 290.855469 138.515625 289.152344 135.664062 287.421875 C 135.410156 287.273438 135.15625 287.128906 134.894531 286.996094 L 134.894531 286.667969 L 134.617188 286.613281 C 134.152344 286.476562 133.78125 286.265625 133.363281 286.015625 L 132.917969 285.75 L 132.578125 285.507812 L 132.578125 285.175781 L 132.246094 285.175781 L 132.082031 284.679688 C 132.867188 284.222656 133.664062 283.792969 134.476562 283.386719 L 134.824219 283.214844 C 135.910156 282.675781 137.011719 282.171875 138.121094 281.675781 C 138.710938 281.410156 139.300781 281.144531 139.890625 280.875 L 140.253906 280.710938 C 141.554688 280.121094 142.84375 279.515625 144.132812 278.910156 C 145.691406 278.175781 147.253906 277.449219 148.828125 276.746094 C 149.734375 276.34375 150.632812 275.921875 151.527344 275.496094 C 152.554688 275.003906 153.585938 274.53125 154.621094 274.066406 C 156 273.453125 157.367188 272.816406 158.730469 272.171875 C 159.625 271.753906 160.519531 271.332031 161.414062 270.914062 C 161.683594 270.789062 161.953125 270.664062 162.222656 270.535156 C 162.636719 270.34375 163.050781 270.152344 163.464844 269.960938 L 163.808594 269.796875 C 164.265625 269.59375 164.675781 269.453125 165.175781 269.390625 C 165.851562 269.476562 166.417969 269.707031 167.046875 269.972656 C 167.3125 270.078125 167.582031 270.1875 167.851562 270.292969 L 168.261719 270.457031 C 170.597656 271.367188 173.019531 271.996094 175.441406 272.632812 C 175.871094 272.746094 176.296875 272.863281 176.722656 272.984375 C 183.179688 274.820312 190.023438 275.484375 196.707031 275.464844 C 197.050781 275.464844 197.390625 275.464844 197.730469 275.460938 C 200.976562 275.457031 204.171875 275.375 207.386719 274.914062 C 207.777344 274.863281 208.167969 274.8125 208.554688 274.765625 C 210.75 274.46875 212.90625 274.070312 215.054688 273.535156 C 215.496094 273.425781 215.9375 273.320312 216.378906 273.214844 C 226.667969 270.707031 236.242188 265.910156 244.75 259.667969 L 245.160156 259.367188 C 245.738281 258.941406 246.308594 258.515625 246.855469 258.046875 L 247.277344 257.703125 L 247.605469 257.703125 L 247.605469 257.371094 C 247.839844 257.164062 248.082031 256.96875 248.332031 256.78125 C 249.066406 256.207031 249.761719 255.609375 250.453125 254.984375 C 250.722656 254.734375 250.996094 254.488281 251.269531 254.246094 C 252.292969 253.335938 253.273438 252.394531 254.242188 251.429688 C 254.484375 251.1875 254.730469 250.945312 254.976562 250.703125 C 255.886719 249.796875 256.738281 248.859375 257.535156 247.851562 C 257.878906 247.429688 258.234375 247.03125 258.601562 246.632812 C 259.46875 245.679688 260.242188 244.664062 261.011719 243.632812 L 261.28125 243.277344 C 264.960938 238.394531 268.082031 233.136719 270.566406 227.554688 C 270.714844 227.226562 270.863281 226.902344 271.015625 226.578125 C 271.644531 225.246094 272.183594 223.894531 272.679688 222.511719 L 272.800781 222.179688 C 273.066406 221.445312 273.332031 220.707031 273.589844 219.964844 L 273.746094 219.53125 C 276.578125 211.492188 277.636719 202.796875 277.730469 194.3125 L 277.738281 193.824219 C 277.75 192.9375 277.746094 192.054688 277.730469 191.167969 L 277.722656 190.761719 C 277.636719 186.082031 276.953125 181.488281 275.910156 176.933594 L 275.789062 176.40625 C 274.058594 167.972656 274.058594 167.972656 270.074219 160.527344 C 269.675781 160.058594 269.675781 160.058594 269.289062 159.886719 L 269.289062 159.554688 L 269.007812 159.421875 C 268.601562 159.214844 268.222656 158.980469 267.839844 158.738281 C 266.574219 157.976562 265.367188 157.578125 263.878906 157.542969 C 263.59375 157.539062 263.304688 157.539062 263.019531 157.539062 L 262.589844 157.53125 C 261.160156 157.53125 260.023438 157.835938 258.757812 158.480469 L 258.410156 158.65625 C 257.207031 159.285156 256.136719 160.0625 255.054688 160.878906 C 254.847656 161.035156 254.644531 161.1875 254.4375 161.339844 C 253.882812 161.753906 253.324219 162.171875 252.773438 162.589844 C 252.109375 163.089844 251.445312 163.589844 250.78125 164.085938 L 250.359375 164.40625 C 249.292969 165.203125 248.222656 165.992188 247.144531 166.78125 C 246.152344 167.511719 245.171875 168.261719 244.191406 169.011719 C 243.023438 169.910156 241.832031 170.78125 240.625 171.625 C 239.8125 172.195312 239.011719 172.78125 238.222656 173.378906 C 237.515625 173.914062 236.804688 174.433594 236.09375 174.957031 L 235.679688 175.261719 C 234.832031 175.886719 233.980469 176.507812 233.128906 177.125 C 232.34375 177.699219 231.566406 178.289062 230.789062 178.875 C 228.585938 180.53125 226.382812 182.183594 224.125 183.761719 C 223.132812 184.457031 222.167969 185.175781 221.210938 185.921875 C 220.105469 186.777344 218.96875 187.597656 217.839844 188.421875 C 217.527344 188.652344 217.21875 188.882812 216.90625 189.117188 L 216.429688 189.472656 L 216.03125 189.769531 C 215.644531 190.019531 215.269531 190.183594 214.835938 190.339844 L 214.835938 190.671875 C 214.507812 190.953125 214.507812 190.953125 214.027344 191.304688 L 213.761719 191.5 C 213.460938 191.71875 213.15625 191.941406 212.851562 192.160156 L 212.515625 192.40625 C 212.027344 192.757812 211.539062 193.109375 211.050781 193.460938 C 209.113281 194.855469 207.191406 196.269531 205.296875 197.726562 C 204.328125 198.472656 203.347656 199.199219 202.351562 199.910156 L 201.984375 200.171875 C 201.691406 200.375 201.398438 200.574219 201.097656 200.769531 L 200.769531 200.769531 L 200.769531 201.097656 C 200.445312 201.363281 200.445312 201.363281 199.992188 201.679688 C 199.300781 202.167969 198.621094 202.667969 197.953125 203.1875 C 196.109375 204.621094 194.214844 205.988281 192.320312 207.359375 C 191.105469 208.246094 189.898438 209.144531 188.6875 210.035156 C 184.515625 213.113281 184.515625 213.113281 182.929688 214.238281 C 181.769531 215.066406 180.617188 215.910156 179.472656 216.757812 C 178.433594 217.523438 177.386719 218.28125 176.335938 219.035156 C 175.390625 219.714844 174.46875 220.425781 173.558594 221.152344 C 173.171875 221.425781 172.929688 221.554688 172.464844 221.621094 L 172.464844 221.953125 C 172.117188 222.238281 172.117188 222.238281 171.660156 222.554688 L 171.207031 222.871094 L 170.8125 223.113281 L 170.480469 223.113281 L 170.480469 223.441406 C 170.246094 223.605469 170.015625 223.765625 169.777344 223.914062 C 169.289062 224.234375 168.84375 224.601562 168.390625 224.964844 C 167.496094 225.671875 166.59375 226.363281 165.679688 227.042969 C 165.25 227.367188 164.820312 227.695312 164.398438 228.023438 C 163.53125 228.699219 162.65625 229.359375 161.769531 230.011719 L 161.472656 230.234375 C 161.195312 230.4375 161.195312 230.4375 160.714844 230.726562 L 160.21875 230.558594 C 160.847656 229.921875 161.476562 229.285156 162.109375 228.648438 C 162.324219 228.433594 162.539062 228.21875 162.753906 228 C 163.058594 227.6875 163.367188 227.378906 163.675781 227.066406 C 163.773438 226.96875 163.871094 226.871094 163.96875 226.773438 C 164.203125 226.539062 164.445312 226.3125 164.6875 226.089844 L 165.019531 226.089844 L 165.019531 225.757812 L 165.347656 225.757812 L 165.484375 225.4375 L 165.679688 225.097656 L 166.175781 224.933594 L 166.175781 224.601562 L 166.507812 224.601562 L 166.507812 224.269531 L 166.839844 224.269531 L 166.839844 223.9375 C 167.066406 223.671875 167.066406 223.671875 167.335938 223.441406 L 167.667969 223.441406 L 167.667969 223.113281 L 167.996094 223.113281 L 167.996094 222.78125 L 168.328125 222.78125 L 168.460938 222.460938 L 168.660156 222.117188 L 169.15625 221.953125 L 169.15625 221.621094 L 169.488281 221.621094 L 169.488281 221.289062 L 169.816406 221.289062 L 169.953125 220.96875 L 170.148438 220.628906 L 170.644531 220.464844 L 170.644531 220.132812 L 170.976562 220.132812 L 170.976562 219.800781 L 171.308594 219.800781 L 171.441406 219.480469 L 171.636719 219.140625 L 172.136719 218.972656 L 172.136719 218.644531 L 172.464844 218.644531 L 172.464844 218.3125 L 172.796875 218.3125 L 172.910156 218.035156 C 173.195312 217.53125 173.558594 217.183594 173.96875 216.773438 L 174.226562 216.515625 C 174.507812 216.234375 174.789062 215.957031 175.074219 215.679688 L 175.660156 215.09375 C 176.175781 214.582031 176.691406 214.070312 177.207031 213.558594 C 178.035156 212.738281 178.859375 211.917969 179.683594 211.09375 C 179.972656 210.808594 180.261719 210.523438 180.550781 210.234375 L 181.082031 209.710938 L 181.550781 209.246094 C 181.90625 208.910156 181.90625 208.910156 182.066406 208.546875 L 182.394531 208.546875 L 182.394531 208.214844 C 182.625 207.945312 182.625 207.945312 182.894531 207.71875 L 183.222656 207.71875 L 183.222656 207.386719 C 183.550781 207.109375 183.882812 206.832031 184.21875 206.5625 L 184.382812 206.230469 L 184.714844 206.230469 L 184.714844 205.898438 L 185.042969 205.898438 L 185.042969 205.566406 C 185.4375 205.132812 185.4375 205.132812 185.871094 204.738281 L 186.203125 204.738281 L 186.367188 204.242188 C 186.640625 204.019531 186.917969 203.796875 187.195312 203.582031 L 187.363281 203.25 L 187.691406 203.25 L 187.691406 202.917969 L 188.023438 202.917969 L 188.023438 202.589844 L 188.355469 202.589844 L 188.355469 202.257812 C 188.582031 201.988281 188.582031 201.988281 188.851562 201.761719 L 189.183594 201.761719 L 189.183594 201.429688 L 189.511719 201.429688 L 189.511719 201.097656 L 189.84375 201.097656 L 189.84375 200.769531 C 190.070312 200.5 190.070312 200.5 190.339844 200.269531 L 190.671875 200.269531 L 190.671875 199.941406 L 191.003906 199.941406 L 191.003906 199.609375 L 191.332031 199.609375 L 191.332031 199.277344 C 191.5625 199.007812 191.5625 199.007812 191.832031 198.78125 L 192.160156 198.78125 L 192.492188 198.121094 L 192.824219 198.121094 L 192.824219 197.789062 C 193.050781 197.519531 193.050781 197.519531 193.320312 197.292969 L 193.652344 197.292969 L 193.652344 196.960938 L 193.980469 196.960938 L 193.980469 196.628906 L 194.3125 196.628906 L 194.3125 196.300781 C 194.539062 196.03125 194.539062 196.03125 194.808594 195.800781 L 195.140625 195.800781 L 195.472656 195.140625 L 195.800781 195.140625 L 195.800781 194.808594 C 196.03125 194.539062 196.03125 194.539062 196.300781 194.3125 L 196.628906 194.3125 L 196.628906 193.980469 L 196.960938 193.980469 L 196.960938 193.652344 L 197.292969 193.652344 L 197.292969 193.320312 C 197.519531 193.050781 197.519531 193.050781 197.789062 192.824219 L 198.121094 192.824219 L 198.121094 192.492188 L 198.449219 192.492188 L 198.449219 192.160156 L 198.78125 192.160156 L 198.78125 191.832031 C 199.007812 191.5625 199.007812 191.5625 199.277344 191.332031 L 199.609375 191.332031 L 199.609375 191.003906 L 199.941406 191.003906 L 199.941406 190.671875 L 200.269531 190.671875 L 200.269531 190.339844 C 200.5 190.070312 200.5 190.070312 200.769531 189.84375 L 201.097656 189.84375 L 201.097656 189.511719 L 201.429688 189.511719 L 201.429688 189.183594 L 201.761719 189.183594 L 201.761719 188.851562 C 201.988281 188.582031 201.988281 188.582031 202.257812 188.355469 L 202.589844 188.355469 L 202.589844 188.023438 L 202.917969 188.023438 L 202.917969 187.691406 L 203.25 187.691406 L 203.25 187.363281 C 203.476562 187.09375 203.476562 187.09375 203.746094 186.863281 L 204.078125 186.863281 L 204.078125 186.535156 L 204.410156 186.535156 L 204.410156 186.203125 L 204.738281 186.203125 L 204.738281 185.871094 C 204.96875 185.601562 204.96875 185.601562 205.238281 185.375 L 205.566406 185.375 L 205.898438 184.714844 L 206.230469 184.714844 L 206.230469 184.382812 C 206.457031 184.113281 206.457031 184.113281 206.726562 183.886719 L 207.058594 183.886719 L 207.386719 183.222656 L 207.71875 183.222656 L 207.71875 182.894531 C 207.945312 182.625 207.945312 182.625 208.214844 182.394531 L 208.546875 182.394531 L 208.878906 181.734375 L 209.207031 181.734375 L 209.207031 181.402344 C 209.4375 181.132812 209.4375 181.132812 209.707031 180.90625 L 210.035156 180.90625 L 210.035156 180.574219 L 210.367188 180.574219 L 210.367188 180.246094 L 210.699219 180.246094 L 210.699219 179.914062 C 210.925781 179.644531 210.925781 179.644531 211.195312 179.417969 L 211.527344 179.417969 L 211.855469 178.753906 L 212.1875 178.753906 L 212.1875 178.425781 C 212.414062 178.15625 212.414062 178.15625 212.683594 177.929688 L 213.015625 177.929688 L 213.015625 177.597656 L 213.347656 177.597656 L 213.347656 177.265625 L 213.675781 177.265625 L 213.675781 176.933594 C 213.90625 176.664062 213.90625 176.664062 214.175781 176.4375 L 214.503906 176.4375 L 214.503906 176.105469 L 214.835938 176.105469 L 214.835938 175.777344 L 215.167969 175.777344 L 215.167969 175.445312 C 215.394531 175.175781 215.394531 175.175781 215.664062 174.949219 L 215.996094 174.949219 L 215.996094 174.617188 L 216.324219 174.617188 L 216.324219 174.285156 L 216.65625 174.285156 L 216.65625 173.957031 C 216.882812 173.6875 216.882812 173.6875 217.152344 173.460938 L 217.484375 173.460938 L 217.484375 173.128906 L 217.816406 173.128906 L 217.816406 172.796875 L 218.144531 172.796875 L 218.144531 172.464844 C 218.375 172.195312 218.375 172.195312 218.644531 171.96875 L 218.972656 171.96875 L 218.972656 171.636719 L 219.304688 171.636719 L 219.304688 171.308594 L 219.636719 171.308594 L 219.636719 170.976562 C 219.863281 170.707031 219.863281 170.707031 220.132812 170.480469 L 220.464844 170.480469 L 220.792969 169.816406 L 221.125 169.816406 L 221.125 169.488281 C 221.578125 168.984375 221.984375 168.585938 222.613281 168.328125 L 222.613281 167.996094 C 222.84375 167.726562 222.84375 167.726562 223.113281 167.5 L 223.441406 167.5 L 223.773438 166.839844 L 224.105469 166.839844 L 224.105469 166.507812 C 224.332031 166.238281 224.332031 166.238281 224.601562 166.011719 L 224.933594 166.011719 L 224.933594 165.679688 L 225.261719 165.679688 L 225.261719 165.347656 L 225.59375 165.347656 L 225.59375 165.019531 C 225.820312 164.75 225.820312 164.75 226.089844 164.523438 L 226.421875 164.523438 L 226.421875 164.191406 L 226.753906 164.191406 L 226.753906 163.859375 L 227.082031 163.859375 L 227.082031 163.527344 C 227.3125 163.257812 227.3125 163.257812 227.582031 163.03125 L 227.910156 163.03125 L 227.910156 162.699219 L 228.242188 162.699219 L 228.242188 162.371094 L 228.574219 162.371094 L 228.574219 162.039062 C 228.800781 161.769531 228.800781 161.769531 229.070312 161.542969 L 229.402344 161.542969 L 229.730469 160.878906 L 230.0625 160.878906 L 230.0625 160.550781 C 230.332031 160.265625 230.605469 159.992188 230.890625 159.722656 C 231.054688 159.558594 231.21875 159.394531 231.382812 159.230469 L 270.316406 120.296875 L 270.644531 119.964844 C 270.832031 119.78125 271.015625 119.597656 271.203125 119.414062 C 271.511719 119.105469 271.792969 118.8125 272.050781 118.457031 L 272.265625 118.179688 L 272.597656 118.179688 L 272.765625 117.683594 L 273.09375 117.683594 L 273.261719 117.1875 C 273.527344 116.902344 273.804688 116.628906 274.085938 116.359375 C 274.25 116.199219 274.410156 116.035156 274.570312 115.875 L 283.867188 106.582031 L 284.113281 106.332031 C 284.34375 106.105469 284.574219 105.875 284.804688 105.648438 C 285.191406 105.265625 285.191406 105.265625 285.558594 104.792969 C 285.992188 104.265625 286.492188 103.835938 287.007812 103.394531 C 287.539062 102.9375 288.023438 102.472656 288.433594 101.90625 L 288.652344 101.628906 L 288.984375 101.628906 L 288.984375 101.296875 L 289.316406 101.296875 L 289.316406 100.964844 C 289.707031 100.53125 289.707031 100.53125 290.140625 100.140625 L 290.472656 100.140625 L 290.804688 99.476562 L 291.136719 99.476562 L 291.300781 98.980469 L 291.632812 98.980469 L 291.75 98.699219 C 292.011719 98.230469 292.328125 97.910156 292.707031 97.53125 L 292.9375 97.304688 C 293.1875 97.054688 293.4375 96.804688 293.6875 96.558594 L 294.210938 96.035156 C 294.574219 95.667969 294.941406 95.304688 295.308594 94.9375 C 295.777344 94.472656 296.242188 94.007812 296.707031 93.542969 C 297.070312 93.183594 297.429688 92.820312 297.789062 92.460938 L 298.304688 91.949219 C 298.546875 91.707031 298.789062 91.464844 299.03125 91.222656 L 299.449219 90.8125 C 299.792969 90.484375 300.144531 90.167969 300.503906 89.859375 C 301.277344 89.1875 302 88.46875 302.722656 87.742188 L 303.160156 87.304688 C 303.558594 86.910156 303.957031 86.511719 304.351562 86.113281 C 304.78125 85.683594 305.210938 85.253906 305.644531 84.824219 C 306.386719 84.078125 307.132812 83.335938 307.875 82.589844 C 308.949219 81.511719 310.027344 80.433594 311.105469 79.359375 C 312.851562 77.609375 314.601562 75.859375 316.347656 74.113281 C 318.042969 72.414062 319.738281 70.71875 321.433594 69.023438 L 323.324219 67.132812 C 326.9375 63.519531 330.550781 59.90625 334.160156 56.289062 L 336.179688 54.269531 C 336.367188 54.078125 336.558594 53.890625 336.746094 53.699219 C 337.105469 53.34375 337.445312 52.988281 337.757812 52.585938 L 338.140625 52.140625 L 338.46875 52.140625 L 338.59375 51.851562 C 338.832031 51.425781 339.097656 51.140625 339.464844 50.816406 M 195.742188 82.90625 C 196.308594 82.90625 196.875 82.90625 197.445312 82.902344 C 200.828125 82.902344 204.199219 82.976562 207.5625 83.371094 L 207.933594 83.414062 C 218.671875 84.648438 229.082031 87.25 239.113281 91.3125 C 239.601562 91.507812 240.089844 91.699219 240.578125 91.894531 C 241.902344 92.417969 243.203125 92.988281 244.492188 93.589844 C 244.597656 93.640625 244.703125 93.6875 244.808594 93.738281 C 246.445312 94.503906 248.050781 95.316406 249.644531 96.167969 L 250.21875 96.472656 C 251.152344 96.980469 252.050781 97.511719 252.925781 98.113281 C 253.28125 98.351562 253.648438 98.550781 254.03125 98.742188 C 256.1875 99.894531 258.820312 101.332031 260.515625 103.117188 C 260.417969 103.421875 260.417969 103.421875 260.183594 103.78125 C 259.703125 104.015625 259.703125 104.015625 259.089844 104.234375 C 258.171875 104.578125 257.292969 104.957031 256.417969 105.402344 C 254.136719 106.570312 251.8125 107.667969 249.460938 108.6875 L 249.117188 108.835938 C 248.898438 108.929688 248.683594 109.023438 248.464844 109.117188 C 247.804688 109.402344 247.164062 109.710938 246.523438 110.035156 C 245.332031 110.636719 244.117188 111.179688 242.898438 111.726562 C 242.355469 111.96875 241.808594 112.214844 241.265625 112.460938 C 240.390625 112.851562 239.519531 113.25 238.652344 113.65625 C 238.003906 113.953125 237.355469 114.242188 236.703125 114.527344 C 235.019531 115.273438 233.34375 116.039062 231.695312 116.867188 L 231.144531 117.140625 C 230.78125 117.320312 230.421875 117.5 230.0625 117.683594 C 229.167969 118.125 228.335938 118.5 227.328125 118.546875 C 226.527344 118.476562 225.835938 118.160156 225.109375 117.839844 C 224.769531 117.699219 224.433594 117.558594 224.09375 117.421875 L 223.589844 117.210938 C 221.402344 116.339844 219.078125 115.753906 216.800781 115.160156 C 216.488281 115.078125 216.175781 114.996094 215.863281 114.910156 C 205.617188 112.183594 194.328125 111.660156 183.886719 113.546875 L 183.320312 113.644531 C 180.269531 114.191406 177.273438 114.863281 174.285156 115.695312 L 173.851562 115.816406 C 168.902344 117.179688 163.925781 119.085938 159.390625 121.488281 L 159.070312 121.660156 C 158.644531 121.886719 158.21875 122.113281 157.796875 122.339844 C 157.171875 122.675781 156.542969 122.992188 155.90625 123.300781 C 154.84375 123.824219 153.867188 124.464844 152.878906 125.117188 C 152.472656 125.382812 152.058594 125.644531 151.644531 125.90625 C 150.949219 126.347656 150.265625 126.804688 149.589844 127.269531 L 149.296875 127.449219 L 148.964844 127.449219 L 148.964844 127.777344 C 148.601562 128.0625 148.226562 128.335938 147.847656 128.597656 L 147.21875 129.035156 L 146.917969 129.242188 C 146.695312 129.402344 146.476562 129.566406 146.261719 129.734375 L 145.984375 129.929688 L 145.652344 129.929688 L 145.652344 130.261719 C 145.402344 130.484375 145.402344 130.484375 145.042969 130.746094 C 144.378906 131.25 143.730469 131.769531 143.097656 132.308594 L 142.824219 132.542969 C 142.089844 133.167969 141.378906 133.8125 140.675781 134.46875 L 140.359375 134.730469 L 140.027344 134.730469 L 139.859375 135.226562 L 139.53125 135.226562 L 139.53125 135.558594 C 139.21875 135.910156 139.21875 135.910156 138.867188 136.21875 L 138.535156 136.21875 L 138.402344 136.539062 L 138.207031 136.882812 L 137.710938 137.046875 L 137.710938 137.378906 L 137.378906 137.378906 L 137.378906 137.710938 L 137.046875 137.710938 L 136.917969 137.996094 C 136.699219 138.40625 136.441406 138.722656 136.136719 139.074219 L 135.832031 139.429688 L 135.558594 139.695312 L 135.226562 139.695312 L 135.101562 139.980469 C 134.863281 140.417969 134.578125 140.730469 134.234375 141.09375 C 133.417969 141.984375 132.6875 142.925781 131.960938 143.886719 C 131.753906 144.160156 131.546875 144.429688 131.335938 144.699219 C 130.335938 145.984375 129.378906 147.296875 128.441406 148.632812 L 128.242188 148.914062 C 126.617188 151.226562 125.183594 153.617188 123.808594 156.082031 L 123.601562 156.445312 C 120.21875 162.503906 117.855469 169.226562 116.195312 175.941406 L 116.035156 176.574219 C 114.945312 181.039062 114.246094 185.492188 113.90625 190.070312 L 113.875 190.496094 C 113.664062 193.347656 113.65625 196.199219 113.84375 199.050781 L 113.867188 199.390625 C 114.070312 202.519531 114.414062 205.636719 115.035156 208.710938 L 115.140625 209.234375 C 115.605469 211.511719 116.105469 213.765625 116.761719 215.996094 C 116.972656 216.738281 117.160156 217.492188 117.351562 218.242188 C 117.507812 218.769531 117.6875 219.277344 117.882812 219.792969 C 118.011719 220.128906 118.132812 220.46875 118.25 220.8125 C 118.65625 221.992188 119.070312 223.144531 119.601562 224.273438 C 119.84375 224.785156 120.070312 225.300781 120.296875 225.820312 C 123.46875 233.050781 127.878906 239.871094 133.203125 245.710938 C 133.445312 245.976562 133.6875 246.246094 133.925781 246.519531 C 134.464844 247.128906 135.007812 247.726562 135.589844 248.292969 L 135.863281 248.5625 C 136.042969 248.734375 136.222656 248.90625 136.402344 249.078125 C 136.734375 249.398438 137.015625 249.691406 137.21875 250.109375 L 137.210938 250.421875 C 136.625 251.382812 135.621094 252.222656 134.730469 252.902344 C 134.511719 253.019531 134.292969 253.128906 134.066406 253.234375 L 134.066406 253.566406 C 133.8125 253.820312 133.8125 253.820312 133.46875 254.113281 L 133.105469 254.421875 L 132.746094 254.722656 L 132.445312 254.984375 C 132.21875 255.179688 131.988281 255.367188 131.75 255.550781 L 131.421875 255.550781 L 131.421875 255.882812 C 131.210938 256.097656 131.210938 256.097656 130.902344 256.359375 L 130.539062 256.667969 L 130.097656 257.039062 C 129.714844 257.363281 129.335938 257.6875 128.957031 258.011719 L 128.652344 258.273438 C 127.796875 259.007812 126.957031 259.757812 126.125 260.515625 L 125.296875 261.261719 C 124.878906 261.636719 124.464844 262.007812 124.050781 262.382812 C 123.773438 262.632812 123.496094 262.878906 123.222656 263.128906 C 122.945312 263.378906 122.667969 263.628906 122.390625 263.882812 L 121.984375 264.25 L 121.625 264.582031 L 121.324219 264.820312 L 120.992188 264.820312 L 120.992188 265.148438 C 120.714844 265.4375 120.714844 265.4375 120.351562 265.75 L 119.992188 266.066406 L 119.667969 266.308594 L 119.339844 266.308594 L 119.171875 266.804688 C 118.914062 267.070312 118.914062 267.070312 118.601562 267.332031 L 118.292969 267.597656 L 118.015625 267.796875 L 117.683594 267.796875 L 117.683594 268.128906 C 117.410156 268.371094 117.132812 268.601562 116.84375 268.824219 C 116.171875 269.359375 115.550781 269.910156 114.953125 270.527344 C 114.617188 270.863281 114.261719 271.167969 113.875 271.441406 L 113.546875 271.441406 L 113.546875 271.769531 C 113.257812 272.023438 112.964844 272.269531 112.664062 272.503906 C 112.027344 273.003906 112.027344 273.003906 111.4375 273.554688 L 111.226562 273.757812 L 110.898438 273.757812 L 110.898438 274.085938 C 110.6875 274.304688 110.6875 274.304688 110.378906 274.5625 L 110.015625 274.875 L 109.574219 275.246094 C 109.289062 275.488281 109.007812 275.730469 108.726562 275.96875 C 108.523438 276.144531 108.324219 276.316406 108.121094 276.488281 C 107.417969 277.089844 106.722656 277.707031 106.042969 278.335938 L 105.765625 278.554688 L 105.433594 278.554688 L 105.269531 279.054688 C 105.035156 279.289062 105.035156 279.289062 104.722656 279.550781 C 104.128906 280.054688 103.546875 280.570312 102.972656 281.101562 L 102.464844 281.570312 C 102.136719 281.871094 101.808594 282.171875 101.480469 282.472656 L 101.039062 282.878906 L 100.644531 283.242188 C 100.304688 283.523438 100.304688 283.523438 99.808594 283.6875 L 99.808594 284.019531 C 99.535156 284.285156 99.535156 284.285156 99.175781 284.585938 C 98.679688 285.007812 98.679688 285.007812 98.214844 285.460938 L 97.988281 285.671875 L 97.65625 285.671875 L 97.65625 286.003906 C 97.390625 286.277344 97.390625 286.277344 97.035156 286.582031 L 96.6875 286.890625 C 96.359375 287.144531 96.046875 287.324219 95.671875 287.492188 L 95.671875 287.824219 L 95.339844 287.824219 L 95.339844 288.15625 C 95.097656 288.40625 95.097656 288.40625 94.78125 288.671875 L 94.464844 288.945312 L 94.179688 289.148438 L 93.851562 289.148438 L 93.683594 289.644531 C 93.199219 290.089844 93.199219 290.089844 92.691406 290.472656 L 92.359375 290.472656 L 92.359375 290.804688 L 92.027344 290.804688 L 92.027344 291.136719 C 91.785156 291.378906 91.785156 291.378906 91.449219 291.664062 C 90.84375 292.179688 90.246094 292.703125 89.65625 293.238281 L 89.382812 293.453125 L 89.050781 293.453125 L 88.882812 293.949219 C 88.636719 294.199219 88.636719 294.199219 88.316406 294.464844 C 87.609375 295.0625 86.929688 295.683594 86.253906 296.3125 L 85.90625 296.597656 L 85.574219 296.597656 L 85.574219 296.929688 C 85.328125 297.148438 85.070312 297.355469 84.808594 297.558594 C 84.03125 298.179688 83.292969 298.832031 82.5625 299.515625 C 81.863281 300.171875 81.160156 300.824219 80.429688 301.449219 C 80.042969 301.785156 79.664062 302.128906 79.285156 302.472656 C 78.675781 303.023438 78.0625 303.566406 77.445312 304.105469 C 77.230469 304.289062 77.019531 304.480469 76.804688 304.667969 L 76.492188 304.945312 L 76.214844 305.191406 L 75.976562 305.367188 L 75.644531 305.367188 L 75.644531 305.699219 C 75.363281 305.945312 75.078125 306.183594 74.785156 306.414062 C 74.285156 306.808594 73.816406 307.195312 73.371094 307.652344 L 72.996094 308.015625 L 72.664062 308.015625 L 72.664062 308.347656 C 72.367188 308.605469 72.367188 308.605469 71.972656 308.894531 C 71.375 309.335938 70.867188 309.804688 70.347656 310.335938 C 70.035156 310.628906 69.722656 310.921875 69.40625 311.214844 L 68.929688 311.65625 L 68.527344 311.988281 L 68.195312 311.988281 L 68.03125 312.484375 C 67.738281 312.753906 67.441406 313.011719 67.128906 313.261719 L 66.632812 313.667969 L 66.210938 313.976562 L 65.878906 313.976562 L 65.878906 314.304688 C 65.632812 314.527344 65.375 314.734375 65.113281 314.9375 C 64.335938 315.558594 63.597656 316.210938 62.867188 316.890625 C 62.175781 317.542969 61.476562 318.1875 60.753906 318.808594 C 60.324219 319.1875 59.898438 319.578125 59.476562 319.964844 C 59.394531 320.039062 59.308594 320.117188 59.226562 320.195312 C 58.757812 320.621094 58.296875 321.050781 57.835938 321.484375 L 57.542969 321.761719 C 57.351562 321.941406 57.160156 322.121094 56.972656 322.300781 C 56.746094 322.507812 56.515625 322.710938 56.28125 322.914062 L 55.949219 322.914062 L 55.949219 323.242188 C 55.730469 323.464844 55.730469 323.464844 55.410156 323.730469 C 54.96875 324.105469 54.535156 324.480469 54.113281 324.878906 L 53.84375 325.125 C 53.671875 325.289062 53.496094 325.453125 53.320312 325.621094 C 52.929688 325.984375 52.660156 326.214844 52.140625 326.386719 L 52.140625 326.71875 C 51.898438 326.96875 51.898438 326.96875 51.582031 327.238281 L 51.269531 327.507812 L 50.984375 327.710938 L 50.652344 327.710938 L 50.652344 328.042969 L 50.320312 328.042969 L 50.320312 328.375 C 50.117188 328.578125 50.117188 328.578125 49.8125 328.828125 C 49.109375 329.429688 48.429688 330.058594 47.757812 330.691406 C 45.316406 332.976562 45.316406 332.976562 44.527344 333.339844 C 44.773438 332.597656 45.1875 332.039062 45.667969 331.4375 L 45.882812 331.15625 C 46.214844 330.734375 46.550781 330.316406 46.886719 329.898438 C 47.179688 329.554688 47.179688 329.554688 47.34375 329.203125 L 47.671875 329.203125 L 47.796875 328.917969 C 48.039062 328.476562 48.332031 328.152344 48.675781 327.785156 C 49.214844 327.203125 49.730469 326.601562 50.226562 325.984375 C 50.875 325.1875 51.554688 324.425781 52.246094 323.671875 C 53.199219 322.648438 53.199219 322.648438 54.054688 321.550781 L 54.292969 321.257812 L 54.625 321.257812 L 54.753906 320.964844 C 54.972656 320.5625 55.214844 320.308594 55.546875 319.996094 C 55.972656 319.59375 55.972656 319.59375 56.28125 319.105469 L 56.609375 319.105469 L 56.722656 318.835938 C 57.203125 317.972656 57.828125 317.386719 58.597656 316.789062 L 58.761719 316.457031 L 59.09375 316.457031 L 59.222656 316.164062 C 59.441406 315.765625 59.683594 315.507812 60.015625 315.195312 C 60.441406 314.796875 60.441406 314.796875 60.75 314.304688 L 61.078125 314.304688 L 61.246094 313.808594 L 61.574219 313.808594 L 61.699219 313.523438 C 61.941406 313.082031 62.226562 312.792969 62.585938 312.441406 L 62.996094 312.035156 L 63.425781 311.617188 C 64.394531 310.667969 65.335938 309.714844 66.210938 308.679688 L 66.488281 308.351562 C 66.640625 308.171875 66.792969 307.988281 66.945312 307.808594 C 67.367188 307.339844 67.816406 306.902344 68.265625 306.460938 C 68.503906 306.226562 68.742188 305.988281 68.980469 305.75 L 69.230469 305.507812 C 69.679688 305.066406 69.679688 305.066406 70.015625 304.542969 L 70.347656 304.542969 L 70.464844 304.257812 C 70.734375 303.78125 71.070312 303.46875 71.464844 303.09375 C 72.097656 302.476562 72.640625 301.859375 73.136719 301.132812 L 73.328125 300.898438 L 73.65625 300.898438 L 73.65625 300.570312 C 73.929688 300.289062 74.203125 300.011719 74.484375 299.742188 C 75.578125 298.605469 76.617188 297.433594 77.605469 296.203125 C 77.964844 295.761719 78.34375 295.339844 78.726562 294.921875 C 79.804688 293.734375 80.734375 292.460938 81.652344 291.148438 L 81.933594 290.804688 L 82.265625 290.804688 L 82.398438 290.515625 C 82.605469 290.125 82.839844 289.792969 83.113281 289.441406 L 83.421875 289.03125 L 83.753906 288.601562 C 84.730469 287.308594 85.660156 286 86.539062 284.640625 C 86.734375 284.347656 86.933594 284.054688 87.132812 283.761719 C 88.773438 281.347656 90.28125 278.859375 91.542969 276.226562 C 91.699219 275.90625 91.863281 275.589844 92.027344 275.273438 C 94.9375 269.65625 96.847656 263.171875 96.855469 256.816406 L 96.859375 256.285156 C 96.859375 255.917969 96.859375 255.550781 96.859375 255.179688 C 96.859375 254.625 96.863281 254.070312 96.867188 253.511719 C 96.875 250.820312 96.640625 248.304688 96.09375 245.660156 L 95.992188 245.148438 C 95.65625 243.507812 95.304688 241.882812 94.675781 240.324219 C 94.539062 239.96875 94.402344 239.613281 94.261719 239.257812 L 94.0625 238.742188 C 93.855469 238.191406 93.667969 237.632812 93.484375 237.074219 C 93.265625 236.417969 93.023438 235.769531 92.785156 235.121094 L 92.628906 234.703125 C 92.378906 234.019531 92.121094 233.339844 91.84375 232.667969 C 91.523438 231.890625 91.261719 231.09375 91 230.292969 C 90.828125 229.769531 90.65625 229.25 90.457031 228.738281 C 89.332031 225.785156 88.390625 222.679688 87.84375 219.566406 C 87.742188 219.050781 87.621094 218.554688 87.492188 218.046875 C 87.21875 216.980469 87.011719 215.90625 86.816406 214.824219 L 86.707031 214.230469 C 86.605469 213.660156 86.503906 213.089844 86.402344 212.519531 L 86.324219 212.078125 C 86.042969 210.46875 85.832031 208.847656 85.648438 207.222656 L 85.589844 206.726562 C 85.523438 206.121094 85.464844 205.511719 85.410156 204.90625 L 85.367188 204.460938 C 85.089844 201.441406 85.027344 198.441406 85.035156 195.414062 C 85.035156 194.789062 85.035156 194.167969 85.035156 193.546875 C 85.023438 190.367188 85.136719 187.222656 85.410156 184.050781 L 85.445312 183.609375 C 85.515625 182.769531 85.597656 181.929688 85.6875 181.09375 L 85.726562 180.71875 C 86.210938 176.304688 87.046875 171.929688 88.109375 167.625 C 88.214844 167.195312 88.316406 166.769531 88.414062 166.339844 C 89.675781 161.003906 91.609375 155.851562 93.683594 150.785156 L 93.863281 150.339844 C 94.5625 148.625 95.320312 146.957031 96.167969 145.308594 C 96.328125 144.996094 96.484375 144.683594 96.640625 144.367188 C 99.324219 138.890625 102.5 133.675781 106.089844 128.746094 C 106.527344 128.140625 106.945312 127.523438 107.359375 126.902344 L 107.585938 126.621094 L 107.917969 126.621094 L 108.054688 126.328125 C 108.25 125.957031 108.46875 125.648438 108.726562 125.316406 C 109.039062 124.90625 109.335938 124.492188 109.613281 124.054688 L 109.902344 123.640625 L 110.234375 123.640625 L 110.347656 123.382812 C 110.84375 122.460938 111.472656 121.722656 112.222656 120.992188 L 112.582031 120.527344 L 112.882812 120.164062 L 113.214844 120.164062 L 113.328125 119.898438 C 113.621094 119.367188 113.964844 118.960938 114.371094 118.511719 L 114.703125 118.511719 L 114.839844 118.210938 C 115.03125 117.859375 115.210938 117.628906 115.492188 117.347656 L 115.769531 117.066406 L 116.070312 116.769531 L 116.378906 116.460938 C 116.589844 116.246094 116.804688 116.03125 117.023438 115.820312 C 117.351562 115.488281 117.679688 115.160156 118.007812 114.828125 L 118.933594 113.902344 C 119.171875 113.667969 119.421875 113.441406 119.667969 113.214844 L 120 113.214844 L 120 112.882812 L 120.332031 112.882812 L 120.332031 112.550781 C 120.585938 112.296875 120.585938 112.296875 120.929688 112.003906 L 121.296875 111.691406 C 121.589844 111.445312 121.886719 111.203125 122.183594 110.960938 C 122.644531 110.578125 122.644531 110.578125 123.03125 110.179688 C 123.488281 109.726562 123.964844 109.304688 124.457031 108.890625 L 124.738281 108.652344 C 125.695312 107.851562 126.675781 107.082031 127.660156 106.316406 C 127.933594 106.105469 128.203125 105.894531 128.46875 105.683594 C 136.554688 99.382812 145.691406 94.292969 155.230469 90.578125 C 155.699219 90.394531 156.167969 90.203125 156.632812 90.011719 C 158.054688 89.433594 159.492188 88.945312 160.953125 88.480469 L 161.324219 88.363281 C 162.0625 88.128906 162.796875 87.894531 163.535156 87.664062 C 163.824219 87.570312 164.113281 87.480469 164.402344 87.390625 C 170.839844 85.363281 177.519531 84.175781 184.21875 83.421875 L 184.722656 83.363281 C 188.382812 82.957031 192.0625 82.898438 195.742188 82.90625 " fill-opacity="1" fill-rule="nonzero"/></svg>